<svg width="500" height="464" viewBox="0 0 500 464" fill="none" xmlns="http://www.w3.org/2000/svg">
<path d="M33.9279 109.642C55.4838 76.0149 89.1109 50.4353 125.612 32.6157C161.826 14.7962 200.914 4.44941 241.726 1.00047C282.539 -2.16106 325.076 1.57527 358.99 20.8318C392.905 40.0884 418.197 74.8652 442.627 111.654C466.77 148.73 490.05 188.105 497.523 231.505C504.708 274.904 496.373 322.901 471.081 357.678C445.501 392.455 402.964 414.298 361.577 429.531C320.19 445.051 279.952 453.961 236.553 459.709C193.154 465.17 146.593 467.182 107.505 450.512C68.7047 433.555 37.6642 397.628 20.1321 357.391C2.31261 316.866 -1.71114 272.03 0.588155 228.63C3.17486 185.231 12.372 143.269 33.9279 109.642Z" fill="#FFA07A"/>
<g clip-path="url(#clip0_1_108)">
<path d="M243.795 370.225C255.245 370.225 264.527 360.943 264.527 349.494C264.527 338.044 255.245 328.762 243.795 328.762C232.346 328.762 223.064 338.044 223.064 349.494C223.064 360.943 232.346 370.225 243.795 370.225Z" fill="#2F2E41"/>
<path d="M367.645 369.06C379.243 365.577 391.573 361.945 400.771 353.664C408.991 346.265 414.54 334.966 411.135 323.869C407.736 312.795 397.558 305.411 387.05 301.739C381.089 299.656 374.854 298.5 368.621 297.592C361.845 296.605 355.039 295.797 348.236 295.019C320.692 291.868 293.043 289.944 265.292 289.245C251.598 288.9 237.907 288.909 224.211 289.107C211.98 289.285 199.098 289.281 187.752 284.082C178.928 280.04 170.92 272.685 168.461 263.02C165.623 251.864 170.858 240.503 178.367 232.423C182.325 228.164 186.951 224.579 191.723 221.283C196.901 217.707 202.258 214.385 207.732 211.283C218.513 205.178 229.784 199.982 241.428 195.749C247.172 193.661 253.001 191.859 258.881 190.196C263.847 188.792 268.827 187.387 273.626 185.474C282.902 181.777 291.725 175.514 294.084 165.247C296.32 155.516 292.55 144.953 285.943 137.724C278.298 129.361 266.771 125.694 255.72 125.101C243.314 124.435 231.193 127.54 219.532 131.481C207.095 135.684 194.926 140.517 182.226 143.921C169.632 147.294 156.794 149.68 143.83 151.058C137.483 151.734 130.945 152.497 124.56 151.98C119.21 151.546 113.886 149.973 109.943 146.175C106.562 142.919 104.547 138.444 105.24 133.722C105.366 132.864 106.669 133.229 106.544 134.081C105.701 139.83 109.608 145.127 114.423 147.84C119.989 150.976 126.76 150.981 132.956 150.622C146.39 149.811 159.734 147.882 172.848 144.855C185.734 141.912 198.16 137.705 210.571 133.21C222.359 128.941 234.411 124.775 247.004 123.851C257.932 123.048 269.426 124.64 278.946 130.351C287.312 135.37 293.464 143.739 295.425 153.344C297.34 162.729 294.687 172.175 287.583 178.725C280.227 185.506 270.141 188.405 260.742 191.075C248.821 194.462 237.155 198.42 225.863 203.56C214.417 208.755 203.44 214.927 193.053 222.006C183.027 228.857 173.133 237.478 169.962 249.7C168.485 255.394 168.758 261.432 171.229 266.81C173.427 271.592 177.046 275.614 181.262 278.716C191.322 286.119 204 287.638 216.151 287.79C229.798 287.959 243.446 287.499 257.098 287.723C284.919 288.18 312.684 289.873 340.391 292.803C347.334 293.538 354.268 294.35 361.194 295.24C367.423 296.041 373.673 296.836 379.797 298.257C390.686 300.785 401.283 305.645 408.051 314.877C411.055 318.879 412.916 323.622 413.435 328.599C413.909 333.792 412.638 338.996 410.289 343.616C405.092 353.842 395.357 360.346 385.018 364.62C379.481 366.908 373.737 368.642 368.005 370.364C367.169 370.615 366.812 369.31 367.645 369.06Z" fill="#F2F2F2"/>
<path d="M106.113 144.66C112.087 144.66 116.929 139.817 116.929 133.844C116.929 127.87 112.087 123.027 106.113 123.027C100.139 123.027 95.2967 127.87 95.2967 133.844C95.2967 139.817 100.139 144.66 106.113 144.66Z" fill="#F2F2F2"/>
<path d="M181.151 165.166C187.125 165.166 191.967 160.323 191.967 154.35C191.967 148.376 187.125 143.533 181.151 143.533C175.177 143.533 170.335 148.376 170.335 154.35C170.335 160.323 175.177 165.166 181.151 165.166Z" fill="#F2F2F2"/>
<path d="M244.697 124.154C250.67 124.154 255.513 119.311 255.513 113.338C255.513 107.364 250.67 102.522 244.697 102.522C238.723 102.522 233.88 107.364 233.88 113.338C233.88 119.311 238.723 124.154 244.697 124.154Z" fill="#F2F2F2"/>
<path d="M284.357 170.123C290.33 170.123 295.173 165.281 295.173 159.307C295.173 153.333 290.33 148.491 284.357 148.491C278.383 148.491 273.54 153.333 273.54 159.307C273.54 165.281 278.383 170.123 284.357 170.123Z" fill="#F2F2F2"/>
<path d="M230.726 223.304C236.699 223.304 241.542 218.461 241.542 212.487C241.542 206.514 236.699 201.671 230.726 201.671C224.752 201.671 219.909 206.514 219.909 212.487C219.909 218.461 224.752 223.304 230.726 223.304Z" fill="#F2F2F2"/>
<path d="M162.673 248.992C168.647 248.992 173.49 244.15 173.49 238.176C173.49 232.202 168.647 227.36 162.673 227.36C156.7 227.36 151.857 232.202 151.857 238.176C151.857 244.15 156.7 248.992 162.673 248.992Z" fill="#F2F2F2"/>
<path d="M234.782 289.103C240.756 289.103 245.598 284.26 245.598 278.286C245.598 272.313 240.756 267.47 234.782 267.47C228.808 267.47 223.966 272.313 223.966 278.286C223.966 284.26 228.808 289.103 234.782 289.103Z" fill="#F2F2F2"/>
<path d="M312.299 311.637C318.272 311.637 323.115 306.794 323.115 300.82C323.115 294.847 318.272 290.004 312.299 290.004C306.325 290.004 301.482 294.847 301.482 300.82C301.482 306.794 306.325 311.637 312.299 311.637Z" fill="#F2F2F2"/>
<path d="M402.885 306.679C408.859 306.679 413.701 301.837 413.701 295.863C413.701 289.889 408.859 285.047 402.885 285.047C396.911 285.047 392.069 289.889 392.069 295.863C392.069 301.837 396.911 306.679 402.885 306.679Z" fill="#F2F2F2"/>
<path d="M241.575 133.169C209.175 133.398 182.646 159.728 182.185 192.125C182.181 192.425 182.179 194.528 182.179 197.279C182.18 201.312 183.782 205.18 186.634 208.032C189.486 210.884 193.354 212.487 197.387 212.487C199.386 212.487 201.366 212.092 203.213 211.327C205.06 210.561 206.738 209.438 208.151 208.024C209.564 206.609 210.684 204.93 211.448 203.083C212.212 201.235 212.604 199.255 212.603 197.255C212.601 195.384 212.6 194.089 212.6 194.009C212.599 189.002 213.901 184.081 216.379 179.73C218.857 175.379 222.425 171.748 226.731 169.194C231.038 166.64 235.935 165.251 240.941 165.164C245.948 165.077 250.89 166.294 255.283 168.697C259.676 171.099 263.368 174.604 265.996 178.866C268.624 183.128 270.097 188.001 270.27 193.005C270.443 198.009 269.311 202.972 266.985 207.406C264.658 211.839 261.217 215.591 257.001 218.292L257.006 218.298C257.006 218.298 235.361 232.233 228.762 251.349L228.768 251.35C227.607 255.266 227.019 259.33 227.022 263.414C227.022 265.093 227.121 279.783 227.311 291.707C227.378 295.821 229.06 299.743 231.993 302.629C234.926 305.514 238.876 307.131 242.991 307.13C245.058 307.13 247.105 306.721 249.014 305.927C250.923 305.132 252.656 303.969 254.113 302.502C255.57 301.036 256.723 299.296 257.506 297.382C258.288 295.468 258.684 293.419 258.671 291.351C258.605 280.432 258.569 267.717 258.569 266.794C258.569 255.056 269.893 243.361 279.194 235.734C289.905 226.952 297.612 214.984 300.708 201.483C301.393 198.704 301.771 195.857 301.835 192.995C301.835 185.102 300.273 177.287 297.239 170.001C294.205 162.714 289.76 156.099 284.158 150.538C278.557 144.977 271.911 140.58 264.602 137.599C257.294 134.618 249.468 133.112 241.575 133.169Z" fill="#2F2E41"/>
<path d="M429.517 370.793H49.9124C49.7703 370.793 49.6342 370.736 49.5339 370.636C49.4336 370.535 49.3773 370.399 49.3773 370.257C49.3773 370.115 49.4336 369.979 49.5339 369.878C49.6342 369.777 49.7703 369.721 49.9124 369.72H429.517C429.659 369.72 429.795 369.777 429.896 369.877C429.997 369.978 430.053 370.115 430.053 370.257C430.053 370.399 429.997 370.536 429.896 370.636C429.795 370.737 429.659 370.793 429.517 370.793Z" fill="#3F3D56"/>
<path d="M332.604 225.555C340.072 225.555 346.125 219.502 346.125 212.035C346.125 204.568 340.072 198.514 332.604 198.514C325.137 198.514 319.084 204.568 319.084 212.035C319.084 219.502 325.137 225.555 332.604 225.555Z" fill="#2F2E41"/>
<path d="M307.62 364.875H302.095L299.467 343.563H307.622L307.62 364.875Z" fill="#A0616A"/>
<path d="M298.149 363.296H308.804V370.005H291.439C291.439 369.124 291.613 368.252 291.95 367.438C292.287 366.624 292.781 365.884 293.404 365.261C294.027 364.638 294.767 364.144 295.581 363.807C296.395 363.469 297.268 363.296 298.149 363.296Z" fill="#2F2E41"/>
<path d="M350.435 364.875H344.91L342.281 343.563H350.436L350.435 364.875Z" fill="#A0616A"/>
<path d="M340.963 363.296H351.619V370.005H334.254C334.254 369.124 334.427 368.252 334.765 367.438C335.102 366.624 335.596 365.884 336.219 365.261C336.842 364.638 337.582 364.144 338.396 363.807C339.21 363.469 340.082 363.296 340.963 363.296Z" fill="#2F2E41"/>
<path d="M330.55 225.634C336.663 225.634 341.619 220.678 341.619 214.565C341.619 208.452 336.663 203.496 330.55 203.496C324.436 203.496 319.481 208.452 319.481 214.565C319.481 220.678 324.436 225.634 330.55 225.634Z" fill="#A0616A"/>
<path d="M337.147 261.343L342.1 249.964C343.303 247.294 343.648 244.317 343.087 241.443C342.526 238.57 341.087 235.941 338.968 233.92C338.533 233.489 338.071 233.088 337.584 232.716C335.141 230.804 332.129 229.763 329.026 229.755C326.94 229.763 324.88 230.222 322.987 231.098C322.825 231.17 322.667 231.247 322.505 231.324C322.194 231.472 321.887 231.635 321.59 231.801C319.65 232.915 317.999 234.47 316.769 236.339C315.54 238.209 314.768 240.341 314.514 242.564L312.328 260.879C311.779 262.317 292.165 314.235 299.024 353.872C299.097 354.296 299.304 354.684 299.614 354.982C299.923 355.28 300.32 355.47 300.746 355.526L307.7 356.473C308.208 356.542 308.723 356.417 309.142 356.122C309.561 355.826 309.852 355.383 309.958 354.882L321.626 299.264C321.699 298.918 321.885 298.607 322.156 298.38C322.426 298.153 322.765 298.023 323.118 298.011C323.471 297.999 323.817 298.105 324.102 298.314C324.388 298.522 324.595 298.82 324.691 299.16L341.176 357.649C341.294 358.074 341.547 358.449 341.898 358.716C342.249 358.983 342.678 359.127 343.119 359.127C343.25 359.126 343.382 359.114 343.511 359.091L352.006 357.455C352.5 357.363 352.942 357.089 353.244 356.688C353.547 356.287 353.689 355.788 353.642 355.287C352.394 341.366 345.76 271.632 337.147 261.343Z" fill="#2F2E41"/>
<path d="M287.532 223.777C287.455 224.435 287.524 225.102 287.733 225.73C287.941 226.359 288.286 226.935 288.741 227.416C289.196 227.897 289.751 228.273 290.367 228.517C290.984 228.76 291.646 228.866 292.307 228.826L298.494 243.695L303.175 236.757L296.581 223.701C296.441 222.594 295.899 221.578 295.059 220.844C294.219 220.11 293.139 219.71 292.023 219.719C290.908 219.729 289.834 220.147 289.007 220.895C288.179 221.642 287.654 222.668 287.532 223.777Z" fill="#A0616A"/>
<path d="M329.936 276.315C330.594 276.237 331.227 276.015 331.789 275.665C332.352 275.316 332.831 274.847 333.194 274.292C333.556 273.737 333.792 273.11 333.885 272.454C333.978 271.798 333.927 271.129 333.734 270.496L346.752 261.014L338.914 258.079L327.754 267.533C326.71 267.928 325.848 268.691 325.33 269.679C324.812 270.667 324.675 271.811 324.944 272.893C325.213 273.976 325.87 274.922 326.79 275.553C327.71 276.183 328.829 276.455 329.936 276.315Z" fill="#A0616A"/>
<path d="M308.714 253.608C308.215 253.607 307.717 253.558 307.228 253.461C306.044 253.236 304.933 252.723 303.994 251.967C303.055 251.211 302.317 250.236 301.843 249.127L293.175 238.557C292.992 238.334 292.858 238.074 292.784 237.795C292.709 237.515 292.695 237.224 292.742 236.938C292.79 236.653 292.898 236.382 293.058 236.142C293.219 235.902 293.43 235.699 293.676 235.547L299.843 231.729C300.07 231.588 300.324 231.494 300.588 231.451C300.853 231.408 301.123 231.419 301.383 231.481C301.644 231.544 301.889 231.657 302.106 231.815C302.322 231.973 302.505 232.172 302.644 232.401L308.753 242.466L320.454 233.819C321.385 233.331 322.462 233.194 323.486 233.433C324.51 233.673 325.414 234.273 326.032 235.124C326.651 235.974 326.942 237.019 326.854 238.068C326.766 239.116 326.303 240.097 325.551 240.832L313.873 251.485C312.501 252.845 310.647 253.608 308.714 253.608Z" fill="#2F2E41"/>
<path d="M340.329 269.504C340.314 269.504 340.298 269.504 340.282 269.504C339.997 269.497 339.718 269.43 339.461 269.308C339.204 269.186 338.975 269.012 338.79 268.796L333.307 262.399C333.12 262.182 332.981 261.927 332.901 261.651C332.82 261.376 332.798 261.087 332.837 260.802C332.877 260.518 332.976 260.245 333.128 260.002C333.28 259.759 333.483 259.551 333.721 259.392L343.989 252.547L334.687 241.365C334.146 240.463 333.948 239.396 334.128 238.36C334.308 237.324 334.856 236.387 335.67 235.721C336.484 235.055 337.51 234.704 338.562 234.732C339.613 234.76 340.62 235.166 341.397 235.874L352.701 246.922C353.591 247.735 354.27 248.751 354.681 249.884C355.091 251.017 355.22 252.233 355.057 253.427C354.894 254.621 354.444 255.758 353.745 256.739C353.046 257.721 352.12 258.519 351.045 259.063L341.805 268.867C341.616 269.068 341.387 269.228 341.133 269.338C340.879 269.447 340.606 269.504 340.329 269.504Z" fill="#2F2E41"/>
<path d="M327.735 245.934C327.647 245.934 327.559 245.928 327.472 245.917C327.09 245.871 326.73 245.716 326.433 245.471C326.137 245.226 325.917 244.901 325.8 244.534L321.68 231.902C321.576 231.583 321.592 231.237 321.724 230.928C321.856 230.62 322.096 230.369 322.398 230.223L322.532 230.16C322.653 230.103 322.773 230.046 322.896 229.991C324.817 229.1 326.908 228.635 329.026 228.629C331.776 228.634 334.464 229.441 336.76 230.953C337.068 231.158 337.283 231.475 337.359 231.837C337.435 232.199 337.366 232.577 337.167 232.888L329.437 244.997C329.256 245.284 329.005 245.521 328.707 245.685C328.41 245.849 328.075 245.935 327.735 245.934Z" fill="#E6E6E6"/>
<path d="M343.264 205.999C345.707 205.999 347.688 204.018 347.688 201.575C347.688 199.131 345.707 197.15 343.264 197.15C340.821 197.15 338.84 199.131 338.84 201.575C338.84 204.018 340.821 205.999 343.264 205.999Z" fill="#2F2E41"/>
<path d="M328.098 196.712C324.99 196.712 322.01 197.946 319.812 200.144C317.615 202.341 316.38 205.322 316.38 208.429V213.387H322.477L325.394 208.429L326.269 213.387H344.773L339.815 208.429C339.815 205.322 338.581 202.341 336.383 200.144C334.186 197.946 331.205 196.712 328.098 196.712Z" fill="#2F2E41"/>
<path d="M345.538 198.544C346.027 197.014 347.04 195.706 348.399 194.849C349.757 193.992 351.374 193.642 352.965 193.859C355.785 194.33 358.014 196.597 359.342 199.128C360.671 201.659 361.284 204.492 362.177 207.208C363.07 209.923 364.336 212.654 366.59 214.411C368.845 216.169 372.304 216.646 374.518 214.838C374.265 216.722 373.426 218.48 372.119 219.861C370.813 221.243 369.105 222.179 367.238 222.536C365.37 222.894 363.438 222.656 361.713 221.855C359.988 221.054 358.559 219.732 357.628 218.074C356.459 215.996 356.158 213.56 355.811 211.201C355.465 208.842 355.015 206.401 353.62 204.468C352.225 202.534 349.615 201.271 347.399 202.152L345.538 198.544Z" fill="#2F2E41"/>
<path d="M201.681 205.294C197.648 205.293 193.78 203.691 190.928 200.839C188.076 197.986 186.474 194.118 186.473 190.085C186.473 187.334 186.475 185.231 186.479 184.932C186.607 175.51 188.98 166.254 193.401 157.932C186.138 167.876 182.144 179.83 181.973 192.143C181.968 192.442 181.966 194.545 181.967 197.296C181.967 201.329 183.569 205.197 186.421 208.049C189.273 210.902 193.141 212.504 197.174 212.504C200.489 212.503 203.712 211.42 206.355 209.42C208.997 207.42 210.915 204.611 211.816 201.422C209.031 203.919 205.421 205.298 201.681 205.294Z" fill="#0D1B2A"/>
<path d="M242.606 165.215C247.268 165.438 251.807 166.789 255.833 169.152C259.859 171.516 263.251 174.821 265.718 178.784C268.185 182.747 269.653 187.249 269.996 191.905C270.34 196.56 269.549 201.23 267.69 205.512C270.378 202.355 272.354 198.655 273.483 194.665C274.612 190.675 274.867 186.488 274.231 182.391C273.595 178.293 272.083 174.381 269.798 170.921C267.514 167.46 264.509 164.533 260.991 162.339C257.472 160.145 253.522 158.736 249.409 158.207C245.296 157.678 241.118 158.042 237.159 159.274C233.199 160.507 229.552 162.578 226.466 165.348C223.38 168.117 220.927 171.52 219.275 175.323C222.131 171.964 225.719 169.306 229.764 167.554C233.809 165.801 238.202 165.001 242.606 165.215Z" fill="#0D1B2A"/>
<path d="M247.284 299.936C243.17 299.937 239.22 298.321 236.287 295.435C233.353 292.55 231.672 288.627 231.605 284.513C231.415 272.59 231.316 257.899 231.316 256.22C231.313 252.136 231.901 248.073 233.061 244.157L233.056 244.155C233.741 242.19 234.569 240.277 235.532 238.431C232.575 242.372 230.221 246.732 228.549 251.366L228.555 251.367C227.394 255.284 226.806 259.347 226.809 263.431C226.809 265.11 226.908 279.8 227.099 291.724C227.165 295.838 228.847 299.761 231.78 302.646C234.713 305.531 238.663 307.148 242.778 307.147C246.17 307.146 249.471 306.046 252.185 304.011C254.899 301.975 256.88 299.115 257.831 295.858C254.948 298.487 251.186 299.942 247.284 299.936Z" fill="#0D1B2A"/>
<path d="M106.405 365.08L111.93 365.08L114.559 343.768L106.404 343.769L106.405 365.08Z" fill="#FFB8B8"/>
<path d="M122.586 370.21L105.221 370.211L105.221 363.502L115.877 363.501C117.656 363.501 119.363 364.208 120.621 365.466C121.879 366.724 122.586 368.431 122.586 370.21Z" fill="#2F2E41"/>
<path d="M86.5752 365.08L92.1001 365.08L94.7289 343.768L86.5739 343.769L86.5752 365.08Z" fill="#FFB8B8"/>
<path d="M102.756 370.21L85.3913 370.211L85.391 363.502L96.0468 363.501C97.8261 363.501 99.5327 364.208 100.791 365.466C102.049 366.724 102.756 368.431 102.756 370.21Z" fill="#2F2E41"/>
<path d="M91.4035 358.526L86.0066 358.242C85.7283 358.227 85.4557 358.158 85.2046 358.037C84.9534 357.916 84.7287 357.747 84.5435 357.539C84.3583 357.33 84.2162 357.087 84.1255 356.824C84.0349 356.56 83.9974 356.282 84.0153 356.003L90.4657 284.586L120.17 292.602L123.032 291.821L114.083 355.044C114.006 355.52 113.77 355.955 113.413 356.279C113.056 356.602 112.599 356.794 112.118 356.822L106.301 357.093C106.01 357.109 105.719 357.065 105.446 356.963C105.173 356.861 104.924 356.703 104.715 356.5C104.506 356.297 104.342 356.053 104.232 355.783C104.123 355.513 104.07 355.223 104.078 354.932L105.132 316.986C105.137 316.811 105.076 316.64 104.961 316.507C104.847 316.375 104.686 316.29 104.512 316.269C104.337 316.249 104.162 316.295 104.019 316.397C103.877 316.5 103.778 316.652 103.743 316.824L93.5769 356.85C93.4809 357.325 93.2232 357.752 92.8477 358.058C92.4722 358.364 92.0021 358.531 91.5176 358.529C91.4798 358.529 91.4418 358.528 91.4035 358.526Z" fill="#2F2E41"/>
<path d="M107.397 226.152C113.51 226.152 118.466 221.196 118.466 215.083C118.466 208.969 113.51 204.013 107.397 204.013C101.284 204.013 96.3279 208.969 96.3279 215.083C96.3279 221.196 101.284 226.152 107.397 226.152Z" fill="#FFB8B8"/>
<path d="M88.9677 247.603L90.1848 273.863L90.6248 283.417C90.6423 283.833 90.7835 284.234 91.0303 284.569C91.2771 284.904 91.6184 285.158 92.0103 285.298L120.555 295.639C120.785 295.724 121.029 295.767 121.275 295.765C121.557 295.766 121.835 295.711 122.094 295.602C122.354 295.494 122.588 295.334 122.785 295.132C122.981 294.931 123.134 294.692 123.236 294.43C123.338 294.168 123.386 293.888 123.377 293.607L122.207 246.391C122.13 242.517 120.704 238.791 118.175 235.856C115.646 232.921 112.171 230.96 108.351 230.312C108.075 230.27 107.794 230.228 107.514 230.19C105.145 229.896 102.74 230.125 100.47 230.86C98.1987 231.595 96.1165 232.819 94.3695 234.445C92.5605 236.109 91.139 238.15 90.2056 240.423C89.2722 242.697 88.8496 245.148 88.9677 247.603Z" fill="#CCCCCC"/>
<path d="M134.19 290.399C133.515 290.189 132.898 289.825 132.389 289.335C131.88 288.844 131.492 288.242 131.257 287.575C131.022 286.909 130.946 286.196 131.035 285.495C131.124 284.794 131.376 284.123 131.77 283.536L122.091 270.665L130.444 270.148L138.355 282.45C139.202 283.105 139.791 284.037 140.02 285.083C140.248 286.129 140.101 287.222 139.604 288.17C139.107 289.119 138.292 289.862 137.302 290.269C136.312 290.677 135.21 290.722 134.19 290.399Z" fill="#FFB8B8"/>
<path d="M127.384 281.207C127.128 281.103 126.895 280.949 126.698 280.754C126.501 280.56 126.345 280.328 126.239 280.072L111.656 245.327C111.37 244.647 111.22 243.917 111.217 243.179C111.213 242.441 111.354 241.71 111.633 241.026C111.912 240.343 112.323 239.722 112.842 239.197C113.362 238.673 113.979 238.256 114.66 237.97C115.34 237.685 116.07 237.536 116.808 237.533C117.546 237.529 118.278 237.671 118.961 237.951C119.644 238.23 120.265 238.642 120.789 239.161C121.313 239.681 121.729 240.299 122.014 240.98L136.598 275.725C136.813 276.24 136.816 276.82 136.604 277.337C136.393 277.854 135.985 278.266 135.471 278.482L128.996 281.199C128.742 281.307 128.468 281.364 128.191 281.365C127.914 281.366 127.64 281.313 127.384 281.207Z" fill="#CCCCCC"/>
<path d="M103.838 279.982L117.845 253.162C118.115 252.646 118.579 252.259 119.134 252.085C119.69 251.91 120.292 251.963 120.808 252.232L141.139 262.85C141.655 263.12 142.042 263.584 142.217 264.14C142.391 264.695 142.338 265.297 142.069 265.814L128.062 292.633C127.792 293.149 127.328 293.536 126.773 293.711C126.217 293.885 125.615 293.832 125.099 293.563L104.768 282.945C104.252 282.675 103.865 282.211 103.69 281.656C103.516 281.1 103.569 280.498 103.838 279.982Z" fill="#3F3D56"/>
<path d="M113.232 267.729C112.983 267.067 112.582 266.473 112.063 265.993C111.544 265.514 110.919 265.163 110.24 264.967C109.561 264.772 108.845 264.738 108.15 264.869C107.455 264.999 106.801 265.29 106.239 265.718L92.818 256.816L92.7952 265.185L105.543 272.356C106.247 273.163 107.212 273.696 108.27 273.862C109.327 274.028 110.41 273.817 111.327 273.265C112.244 272.713 112.938 271.855 113.286 270.843C113.634 269.831 113.615 268.728 113.232 267.729Z" fill="#FFB8B8"/>
<path d="M96.2636 269.611L85.2955 260.923C84.109 260.524 83.0369 259.844 82.1712 258.94C81.3055 258.036 80.6721 256.935 80.3253 255.733C79.9786 254.53 79.9289 253.261 80.1805 252.035C80.432 250.809 80.9774 249.662 81.7697 248.693L91.7284 235.642C92.4204 234.796 93.3937 234.228 94.4703 234.041C95.5469 233.853 96.6549 234.06 97.5918 234.622C98.5286 235.185 99.2318 236.066 99.5727 237.104C99.9136 238.142 99.8694 239.268 99.4484 240.277L91.5688 253.166L103.148 258.659C103.418 258.786 103.657 258.97 103.85 259.197C104.043 259.424 104.186 259.689 104.269 259.975C104.352 260.261 104.373 260.562 104.331 260.857C104.29 261.152 104.186 261.435 104.026 261.687L99.3522 269.084C99.1941 269.334 98.9854 269.548 98.7396 269.712C98.4937 269.876 98.2162 269.986 97.925 270.036C97.9134 270.038 97.9018 270.04 97.8901 270.041C97.604 270.085 97.312 270.069 97.0322 269.995C96.7525 269.92 96.4909 269.79 96.2636 269.611Z" fill="#CCCCCC"/>
<path d="M99.0329 222.495C98.9854 222.356 98.9704 222.208 98.9889 222.062C99.0074 221.916 99.059 221.777 99.1398 221.654C99.2205 221.532 99.3283 221.429 99.4548 221.355C99.5813 221.28 99.7232 221.235 99.8696 221.224C100.169 221.24 100.463 221.317 100.732 221.45C101.001 221.583 101.241 221.769 101.436 221.997C101.837 222.459 102.303 222.859 102.82 223.186C103.356 223.455 104.082 223.417 104.387 222.902C104.674 222.419 104.477 221.772 104.304 221.211C103.862 219.783 103.615 218.302 103.569 216.808C103.519 215.14 103.755 213.4 104.678 212.099C105.869 210.42 108 209.783 110.016 209.829C112.033 209.875 114.016 210.498 116.014 210.891C116.703 211.027 117.514 211.097 117.975 210.562C118.465 209.994 118.285 209.074 118.076 208.307C117.535 206.316 116.961 204.258 115.704 202.65C114.344 200.979 112.402 199.886 110.268 199.59C108.22 199.336 106.14 199.572 104.201 200.279C101.041 201.275 98.2606 203.212 96.2315 205.83C94.1397 208.615 93.2359 212.116 93.7175 215.565C94.1881 218.57 95.7802 221.284 98.1729 223.161L99.0329 222.495Z" fill="#2F2E41"/>
<path d="M239.228 365.168C236.283 363.886 233.676 361.936 231.614 359.473C229.551 357.011 228.089 354.103 227.343 350.978C226.597 347.854 226.588 344.599 227.315 341.47C228.042 338.341 229.487 335.425 231.535 332.95C229.16 334.683 227.182 336.902 225.731 339.458C224.28 342.015 223.389 344.851 223.117 347.778C222.846 350.705 223.2 353.657 224.157 356.436C225.113 359.216 226.65 361.761 228.665 363.901C230.68 366.042 233.127 367.729 235.844 368.852C238.561 369.974 241.486 370.506 244.424 370.411C247.362 370.317 250.247 369.599 252.886 368.304C255.526 367.01 257.86 365.169 259.733 362.904C256.811 365.039 253.38 366.372 249.782 366.77C246.185 367.167 242.546 366.615 239.228 365.168Z" fill="#0D1B2A"/>
</g>
<defs>
<clipPath id="clip0_1_108">
<rect width="380.677" height="268.272" fill="white" transform="translate(49.3757 102.522)"/>
</clipPath>
</defs>
</svg>
